<?xml version="1.0" encoding="UTF-8" standalone="no"?>
<!-- Created with Inkscape (http://www.inkscape.org/) -->

<svg
   xmlns:dc="http://purl.org/dc/elements/1.1/"
   xmlns:cc="http://creativecommons.org/ns#"
   xmlns:rdf="http://www.w3.org/1999/02/22-rdf-syntax-ns#"
   xmlns:svg="http://www.w3.org/2000/svg"
   xmlns="http://www.w3.org/2000/svg"
   xmlns:sodipodi="http://sodipodi.sourceforge.net/DTD/sodipodi-0.dtd"
   xmlns:inkscape="http://www.inkscape.org/namespaces/inkscape"
   id="svg2"
   version="1.1"
   inkscape:version="0.91 r13725"
   xml:space="preserve"
   width="5520"
   height="2760.2766"
   viewBox="0 0 5520 2760.2766"
   sodipodi:docname="LOGO-B-napis.svg"><metadata
     id="metadata8"><rdf:RDF><cc:Work
         rdf:about=""><dc:format>image/svg+xml</dc:format><dc:type
           rdf:resource="http://purl.org/dc/dcmitype/StillImage" /><dc:title></dc:title></cc:Work></rdf:RDF></metadata><defs
     id="defs6" /><sodipodi:namedview
     pagecolor="#ffffff"
     bordercolor="#666666"
     borderopacity="1"
     objecttolerance="10"
     gridtolerance="10"
     guidetolerance="10"
     inkscape:pageopacity="0"
     inkscape:pageshadow="2"
     inkscape:window-width="1920"
     inkscape:window-height="1056"
     id="namedview4"
     showgrid="false"
     inkscape:zoom="0.085498678"
     inkscape:cx="-325.7906"
     inkscape:cy="1380.1383"
     inkscape:window-x="0"
     inkscape:window-y="24"
     inkscape:window-maximized="1"
     inkscape:current-layer="g10" /><g
     id="g10"
     inkscape:groupmode="layer"
     inkscape:label="LOGO-B-napis"
     transform="matrix(1.25,0,0,-1.25,0,2760.2765)"><g
       id="g12"
       transform="translate(1107.2085,0)"><path
         d="m 1233.859,567.459 c -0.039,-0.035 -0.082,-0.832 0.254,-0.492 0.039,0.035 0.082,0.832 -0.254,0.492 z"
         style="fill:#ffffff;fill-opacity:1;fill-rule:nonzero;stroke:none"
         id="path14"
         inkscape:connector-curvature="0" /><path
         d="m 1665.195,1650.624 c -1.726,0.078 -3.468,0.031 -5.175,-0.243 -8.379,-1.336 -16.723,-3.464 -24.54,-6.765 -7.128,-3.012 -13.917,-6.996 -20.031,-11.742 -6.707,-5.211 -12.562,-11.528 -17.929,-18.114 -5.067,-6.218 -9.602,-12.933 -13.325,-20.039 -3.929,-7.5 -6.82,-15.535 -9.379,-23.605 -2.043,-6.453 -3.707,-13.059 -4.734,-19.754 -1.027,-6.707 -1.629,-13.531 -1.402,-20.317 0.218,-6.605 1.379,-13.168 2.679,-19.652 1.704,-8.5 3.836,-16.949 6.692,-25.137 2.836,-8.14 6.785,-15.851 10.32,-23.714 3.317,-7.375 7.473,-14.395 10.215,-22 3.754,-10.434 7.535,-21.125 8.441,-32.176 1.047,-12.75 -1.886,-31.071 -3.562,-38.215 -1.676,-7.145 0,0 -316.09,-631.371 l -101.25,302.25 -70.223,-136.5 117.957,-334.281 54.266,-0.293 c 0,0 402.73,775.394 412.5,792.824 9.77,17.426 27.082,53.683 38.906,81.301 6.309,14.722 12.746,29.496 17.059,44.921 3.32,11.883 5.668,24.106 6.707,36.399 1.266,14.949 1.625,30.164 -0.598,45 -1.094,7.273 -3.386,14.379 -6.191,21.176 -1.793,4.336 -4.383,8.3 -6.731,12.363 -2.132,3.684 -4.207,7.418 -6.675,10.887 -2.379,3.34 -4.879,6.632 -7.809,9.504 -4.883,4.785 -10.199,9.25 -16.102,12.699 -8.234,4.812 -17.25,8.402 -26.457,10.871 -8.949,2.402 -18.285,3.32 -27.539,3.723 z"
         style="fill:#ffc701;fill-opacity:1;fill-rule:nonzero;stroke:none"
         id="path16"
         inkscape:connector-curvature="0" /><path
         d="m 635.113,1647.963 281.645,-858.554 20.555,42.121 -263.95,802.183 -38.25,14.25 z"
         style="fill:#000000;fill-opacity:1;fill-rule:nonzero;stroke:none"
         id="path18"
         inkscape:connector-curvature="0" /><path
         d="m 1734.613,1635.963 c 1.094,-0.812 1.688,-1.078 3,-1.5 -1.156,0.95 -1.539,1.118 -3,1.5"
         style="fill:#ffc701;fill-opacity:1;fill-rule:nonzero;stroke:none"
         id="path20"
         inkscape:connector-curvature="0" /><path
         d="m 1246.68,1044.096 -27.145,-56.133 71.75,-211.461 25.074,53.844 -69.679,213.75 z"
         style="fill:#010101;fill-opacity:1;fill-rule:nonzero;stroke:none"
         id="path22"
         inkscape:connector-curvature="0" /><path
         d="m 793.363,1512.963 54,-20.984 c 10.774,1.766 13.989,2.699 21.067,2.664 10.32,-0.047 23.215,-3.266 30.683,-4.18 -0.636,4.079 -6.347,10.496 -10.726,14.692 -4.285,4.105 -9.41,7.418 -14.817,9.871 -6.398,2.902 -13.406,4.422 -20.351,5.504 -7.137,1.113 -14.434,1.312 -21.649,0.969 -5.605,-0.266 -11.179,-1.172 -16.668,-2.34 -7.308,-1.555 -17,-5.262 -21.539,-6.196 z"
         style="fill:#ffc701;fill-opacity:1;fill-rule:nonzero;stroke:none"
         id="path24"
         inkscape:connector-curvature="0" /><path
         d="m 777.664,1523.264 c 2.141,0.445 16.41,4.633 24.672,6.727 4.133,1.043 8.266,2.097 12.449,2.914 4.879,0.945 9.793,1.754 14.738,2.285 5.692,0.609 11.418,1.051 17.141,1.019 5.926,-0.031 12.024,0.325 17.738,-1.246 9.395,-2.586 18.442,-7.14 26.11,-13.152 4.992,-3.91 8.972,-9.098 12.367,-14.453 3.457,-5.445 5.129,-9.512 7.941,-17.645 l 196.473,-567.859 c 202.5,392.789 260.473,508.699 265.402,521.039 4.93,12.34 12.746,29.496 17.059,44.926 3.32,11.879 5.664,24.101 6.707,36.394 1.266,14.95 1.625,30.164 -0.602,45 -1.089,7.274 -3.386,14.379 -6.191,21.176 -1.789,4.34 -4.383,8.301 -6.73,12.363 -2.133,3.688 -4.208,7.422 -6.676,10.887 -2.379,3.34 -4.879,6.637 -7.809,9.504 -4.879,4.785 -10.199,9.25 -16.101,12.699 -8.231,4.813 -17.215,8.535 -26.457,10.871 -10.629,2.692 -21.782,4.375 -32.711,3.481 -8.457,-0.692 -16.723,-3.465 -24.539,-6.766 -7.133,-3.011 -13.922,-6.996 -20.032,-11.742 -6.711,-5.211 -12.566,-11.527 -17.929,-18.113 -5.067,-6.219 -9.606,-12.934 -13.329,-20.039 -3.929,-7.5 -6.82,-15.532 -9.378,-23.606 -2.043,-6.453 -3.707,-13.058 -4.735,-19.75 -1.027,-6.711 -1.629,-13.535 -1.402,-20.32 0.223,-6.606 1.383,-13.168 2.68,-19.649 1.707,-8.503 3.839,-16.953 6.691,-25.14 2.836,-8.141 6.785,-15.852 10.32,-23.711 3.317,-7.375 7.477,-14.395 10.215,-22.004 3.758,-10.434 7.535,-21.125 8.442,-32.176 1.046,-12.75 -1.161,-27.972 -3.559,-38.215 -0.949,-4.046 -99.766,-194.25 -99.766,-194.25 l -154.5,476.25 -204.859,-79.832 0.16,-47.867 z"
         style="fill:#000000;fill-opacity:1;fill-rule:nonzero;stroke:none"
         id="path26"
         inkscape:connector-curvature="0" /><path
         d="m 998.594,1651.088 140.535,-442.718 24.719,50.343 -122.985,375 -42.269,17.375 z"
         style="fill:#ffc701;fill-opacity:1;fill-rule:nonzero;stroke:none"
         id="path28"
         inkscape:connector-curvature="0" /><path
         d="m 1102.242,886.084 -174.328,-328.226 -54.547,-0.117 40.098,-17.414 44.59,0.254 156.687,308.043 -12.5,37.46 z"
         style="fill:#010101;fill-opacity:1;fill-rule:nonzero;stroke:none"
         id="path30"
         inkscape:connector-curvature="0" /><path
         d="m 618.867,1651.143 -204.855,-79.832 0.156,-47.863 c 2.141,0.441 16.41,4.629 24.676,6.722 4.129,1.047 8.265,2.102 12.449,2.914 4.879,0.946 9.793,1.754 14.734,2.286 5.692,0.609 11.418,1.05 17.141,1.019 5.93,-0.031 12.023,0.324 17.738,-1.246 9.399,-2.586 18.442,-7.141 26.114,-13.152 4.988,-3.91 8.968,-9.098 12.363,-14.453 3.457,-5.446 5.101,-9.524 7.945,-17.645 l 315.32,-920.574 55.559,-0.086 c 136.113,267.68 32.879,61.195 173.981,333.23 l -39.325,117 -139.5,-275.25 -294.496,906.93 z m 759.317,-18.785 c 4.492,-4.688 8.468,-10.629 12.382,-16.18 3.489,-4.949 6.977,-9.933 9.883,-15.246 3.215,-5.867 6.145,-11.941 8.313,-18.269 2.086,-6.082 3.484,-12.407 4.468,-18.758 1.161,-7.5 1.782,-15.117 1.665,-22.703 -0.18,-11.739 -1.504,-23.489 -3.649,-35.032 -2.785,-15.003 -6.851,-29.812 -11.922,-44.207 -4.261,-12.105 -10.117,-23.57 -15.48,-35.25 l -186.75,-370.5 13.554,-43.754 198.465,390.254 c 6,15 15.469,35.317 22.535,53.25 3.418,8.668 6.895,17.336 9.594,26.25 2.031,6.707 3.844,13.508 4.949,20.426 1.18,7.371 1.692,14.86 1.786,22.324 0.082,6.356 -0.176,12.739 -1.036,19.036 -1.05,7.707 -2.687,15.367 -5.015,22.789 -2.16,6.867 -4.797,13.644 -8.254,19.961 -3.024,5.527 -6.504,10.902 -10.809,15.5 -6.859,7.324 -15.679,14.57 -23.508,18.808 m 344.258,10.406 0.75,-0.75 -0.75,0.75 z"
         style="fill:#ff2101;fill-opacity:1;fill-rule:nonzero;stroke:none"
         id="path32"
         inkscape:connector-curvature="0" /><path
         d="m 429.574,1513.983 54,-20.988 c 10.774,1.769 13.989,2.703 21.067,2.668 10.32,-0.047 23.214,-3.266 30.683,-4.18 -0.636,4.078 -6.347,10.496 -10.726,14.691 -4.285,4.106 -9.414,7.418 -14.817,9.868 -6.402,2.906 -13.406,4.425 -20.351,5.507 -7.137,1.11 -14.434,1.313 -21.649,0.969 -5.605,-0.266 -11.183,-1.172 -16.668,-2.34 -7.308,-1.554 -17,-5.261 -21.539,-6.195 z"
         style="fill:#000000;fill-opacity:1;fill-rule:nonzero;stroke:none"
         id="path34"
         inkscape:connector-curvature="0" /><path
         d="m 1744.363,1630.713 c 4.492,-4.687 8.465,-10.629 12.379,-16.179 3.492,-4.95 6.977,-9.934 9.887,-15.242 3.215,-5.872 6.141,-11.942 8.312,-18.274 2.086,-6.078 3.485,-12.406 4.465,-18.758 1.16,-7.496 1.782,-15.113 1.668,-22.699 -0.179,-11.738 -1.508,-23.488 -3.652,-35.031 -2.785,-15.008 -6.852,-29.813 -11.922,-44.211 -4.262,-12.102 -12.797,-29.41 -15.477,-35.25 -146.628,-291.66 -297.453,-579.832 -450.324,-868.211 l -55.179,-0.121 39.207,-17.41 45.484,0.254 c 142.348,289.464 303.633,571.289 446.078,861.488 3,7.5 15.473,35.32 22.539,53.25 3.414,8.668 6.891,17.336 9.59,26.25 2.031,6.707 3.844,13.512 4.953,20.43 1.18,7.371 1.688,14.859 1.785,22.32 0.078,6.355 -0.179,12.742 -1.035,19.039 -1.055,7.707 -2.687,15.367 -5.019,22.785 -2.157,6.871 -4.797,13.649 -8.254,19.965 -3.02,5.523 -6.504,10.898 -10.805,15.496 -6.859,7.328 -15.129,13.289 -23.512,18.813 -6.679,4.398 -21.168,11.296 -21.168,11.296 z"
         style="fill:#010101;fill-opacity:1;fill-rule:nonzero;stroke:none"
         id="path36"
         inkscape:connector-curvature="0" /><path
         d="m 1303.387,2117.78 c -10.09,-3.262 -17.141,-9.274 -21.664,-18.621 -4.082,-8.309 -5.344,-13.871 -5.27,-23.367 0,-10.907 2.375,-17.512 8.902,-24.559 10.09,-10.981 31.235,-16.914 46.891,-13.277 16.543,3.929 27.449,19.214 28.785,40.355 1.262,19.883 -11.277,34.574 -33.906,39.766 -6.676,1.484 -18.547,1.41 -23.738,-0.297 z m 24.109,-17.805 c 8.012,-3.558 10.238,-12.687 6.602,-27.004 -2.594,-10.164 -7.567,-16.914 -13.278,-18.027 -7.05,-1.262 -14.765,1.93 -17.582,7.344 -3.117,5.859 -1.707,19.808 2.891,29.082 4.824,9.718 12.168,12.613 21.367,8.605 z m -116.699,-0.594 c -3.043,-20.328 -5.563,-37.464 -5.785,-38.132 -0.297,-0.965 1.633,-1.411 11.57,-2.895 6.531,-0.887 12.094,-1.555 12.242,-1.332 0.223,0.223 2.078,11.496 4.082,25.074 2.078,13.653 3.93,24.926 4.153,25.149 1.113,1.113 18.695,0.371 24.261,-0.961 3.118,-0.742 5.934,-1.188 6.157,-0.965 0.222,0.223 1.187,5.265 2.003,11.273 1.856,12.317 2.004,11.797 -4.378,12.614 -6.973,0.816 -14.465,-0.817 -21.735,-4.895 -2.152,-1.262 -4.082,-2.152 -4.23,-2.004 -0.149,0.223 0.074,2.301 0.445,4.746 0.445,2.375 0.742,4.75 0.742,5.196 0,0.445 -4.23,1.335 -9.793,2.078 -5.414,0.742 -10.906,1.484 -12.093,1.703 l -2.223,0.371 -5.418,-37.02 z m -208.914,41.621 c -4.824,-0.519 -8.981,-1.113 -9.129,-1.335 -0.293,-0.297 4.527,-47.11 5.344,-52.008 0.297,-2 0,-2.446 -2.821,-4.153 -6.898,-4.156 -15.355,-5.566 -19.808,-3.265 -4.746,2.449 -5.785,6.605 -8.903,35.91 -1.187,11.125 -2.226,20.398 -2.375,20.473 -0.371,0.296 -23.515,-2.223 -23.812,-2.594 -0.594,-0.742 5.414,-53.196 6.601,-57.496 1.411,-5.27 5.196,-11.426 8.383,-13.653 4.899,-3.488 8.903,-4.675 15.657,-4.675 9.793,0 15.652,2.3 24.257,9.5 2.078,1.777 3.934,3.261 4.157,3.261 0.148,0 0.519,-1.633 0.816,-3.707 0.445,-3.34 0.668,-3.711 2.371,-3.711 1.856,0 22.109,2.227 22.258,2.45 0.074,0.074 -1.633,16.543 -3.856,36.5 -2.152,20.031 -3.933,37.093 -4.007,38.058 0,1.41 -0.371,1.633 -3.118,1.559 -1.781,-0.074 -7.195,-0.52 -12.015,-1.114 z m -112.399,9.793 c -5.488,-1.261 -10.089,-2.671 -10.238,-3.191 -0.223,-0.668 10.981,-52.078 12.02,-54.973 0.222,-0.593 0.074,-0.89 -0.297,-0.742 -0.446,0.074 -9.571,8.903 -20.254,19.512 -10.758,10.609 -21.738,21.367 -24.406,23.891 l -4.75,4.597 -14.836,-3.34 c -8.164,-1.851 -14.914,-3.484 -15.063,-3.632 -0.222,-0.223 21.961,-99.192 22.332,-99.563 0.297,-0.223 22.11,4.824 22.551,5.27 0.223,0.218 -2.965,15.355 -7.121,33.605 -4.152,18.25 -7.492,33.461 -7.492,33.684 0,0.222 13.133,-12.688 29.156,-28.637 l 29.082,-29.156 11.871,2.668 c 6.527,1.41 11.945,2.671 12.094,2.82 0.148,0.074 -4.824,22.332 -10.906,49.484 -6.161,27.153 -11.204,49.559 -11.204,49.782 0,0.742 -2.152,0.371 -12.539,-2.079 z m 153.496,19.809 c 0,-0.223 1.856,-8.16 4.157,-17.582 9.718,-40.656 17.359,-72.41 18.547,-77.75 0.742,-3.191 1.558,-6.16 1.781,-6.605 0.371,-0.52 5.637,-0.961 14.91,-1.184 l 14.395,-0.445 1.929,6.601 c 1.11,3.637 4.227,14.094 6.973,23.297 2.746,9.199 6.23,21.066 7.789,26.336 1.559,5.34 2.969,9.125 3.266,8.531 0.222,-0.594 3.929,-15.429 8.234,-33.015 4.301,-17.508 8.086,-32.121 8.383,-32.344 0.297,-0.297 6.898,-0.668 14.691,-0.891 l 14.168,-0.371 2.672,9.051 c 1.484,4.894 4.746,15.801 7.27,24.184 8.679,28.859 10.164,33.832 14.617,48.964 2.445,8.383 4.82,16.102 5.191,17.141 l 0.742,1.926 -6.675,0.519 c -3.711,0.223 -9.868,0.446 -13.579,0.446 -6.527,0 -6.898,-0.075 -7.269,-1.633 -0.149,-0.961 -2.227,-8.68 -4.453,-17.285 -2.301,-8.532 -6.008,-22.625 -8.235,-31.235 -5.562,-21.14 -5.191,-20.324 -6.675,-13.277 -0.743,3.262 -2.598,11.648 -4.157,18.547 -1.558,6.972 -4.375,19.66 -6.304,28.191 -1.93,8.606 -3.711,16.098 -4.008,16.692 -0.52,0.89 -2.965,1.113 -13.5,1.336 l -12.985,0.148 -2.449,-8.309 c -1.41,-4.601 -4.597,-15.578 -7.195,-24.336 -8.754,-29.453 -10.981,-36.574 -11.203,-35.906 -0.149,0.371 -3.192,16.172 -6.899,35.094 -3.711,18.992 -6.75,34.496 -6.898,34.57 -0.445,0.371 -27.231,0.965 -27.231,0.594 z m 3.79,-2052.984 c -10.536,-2.223 -20.551,-9.645 -24.707,-18.176 -2.817,-5.711 -4.969,-14.91 -4.969,-20.996 0,-20.922 9.867,-34.422 28.933,-39.543 7.344,-2 22.407,-1.852 29.453,0.371 15.504,4.824 24.926,17.957 25.965,36.207 1.559,26.707 -15.281,43.547 -43.324,43.25 -3.562,0 -8.683,-0.52 -11.351,-1.113 z m 19.808,-17.286 c 6.305,-2.894 9.125,-9.496 9.125,-21.441 0,-11.203 -3.191,-19.363 -8.754,-22.625 -1.41,-0.816 -4.379,-1.559 -7.051,-1.781 -5.71,-0.445 -10.238,1.633 -13.277,6.082 -5.418,7.789 -4.379,28.562 1.781,36.351 3.559,4.528 12.09,6.161 18.176,3.414 z m -198.234,41.918 c -0.52,-1.484 -14.465,-71.296 -14.614,-73.078 -0.222,-1.781 0.075,-1.855 11.497,-4.152 8.089,-1.633 11.871,-2.152 12.019,-1.559 0.297,0.817 10.758,52.231 10.758,52.746 0,0.817 9.125,2.004 12.984,1.633 5.934,-0.445 10.016,-2.445 11.723,-5.711 1.926,-3.711 1.332,-9.125 -3.563,-33.312 -2.226,-11.203 -4.082,-20.699 -4.082,-21.145 0,-0.738 22.926,-5.859 23.594,-5.34 0.074,0.149 2.672,12.54 5.785,27.598 4.825,23.594 5.567,28.117 5.196,32.496 -0.52,7.196 -3.711,13.574 -8.457,17.063 -9.942,7.269 -21.59,8.16 -35.02,2.746 -5.562,-2.301 -5.637,-2.227 -4.375,2.375 0.445,1.629 0.594,3.039 0.371,3.262 -0.148,0.222 -5.566,1.484 -11.945,2.82 -7.938,1.633 -11.723,2.152 -11.871,1.558 z m -89.102,26.782 c -0.445,-1.262 -24.035,-72.039 -24.035,-72.262 0,-0.297 23.145,-7.789 23.293,-7.566 0.52,0.593 24.336,72.707 24.113,72.929 -0.148,0.149 -5.418,1.93 -11.648,4.004 -7.863,2.598 -11.426,3.488 -11.723,2.895 z m 578.75,6.601 c -30.863,-8.531 -35.613,-9.941 -35.39,-11.129 0.222,-1.406 25.894,-95.183 26.414,-96.593 0.297,-0.743 69.812,17.734 71.07,18.918 0.371,0.371 -4.152,18.476 -4.746,18.996 -0.149,0.074 -10.387,-2.672 -22.777,-6.086 -12.391,-3.414 -22.625,-6.082 -22.848,-5.934 -0.52,0.594 -6.383,22.774 -6.086,23.145 0.223,0.148 9.496,2.82 20.625,5.863 11.203,3.113 20.476,5.785 20.625,5.934 0.445,0.371 -4.231,17.73 -4.899,18.472 -0.296,0.297 -9.718,-1.929 -20.843,-5.043 -11.203,-3.043 -20.551,-5.566 -20.848,-5.566 -0.519,0 -5.269,16.472 -4.824,16.844 0.148,0.148 10.238,2.964 22.406,6.304 12.242,3.266 22.406,6.157 22.629,6.453 0.223,0.223 -0.742,4.676 -2.227,9.793 l -2.671,9.422 -35.61,-9.793 z m -572.664,13.949 c -1.558,-4.675 -2.672,-8.753 -2.449,-8.902 0.148,-0.148 5.711,-2.152 12.242,-4.305 l 11.942,-4.003 2.968,8.753 2.895,8.829 -11.574,3.855 c -6.454,2.152 -12.02,4.008 -12.391,4.156 -0.445,0.149 -2.078,-3.636 -3.633,-8.383 z M 665.957,175.042 c -8.383,-18.918 -15.359,-34.793 -15.508,-35.313 -0.219,-0.816 21.367,-11.129 21.961,-10.461 0.074,0.149 4.824,10.758 10.461,23.52 5.641,12.683 10.387,23.144 10.535,23.144 0.149,0 2.821,-0.519 5.86,-1.187 5.789,-1.184 16.101,-5.266 19.808,-7.864 1.114,-0.816 2.375,-1.336 2.895,-1.187 1.039,0.371 9.644,19.808 9.199,20.996 -0.148,0.445 -2.227,1.633 -4.672,2.598 -5.715,2.3 -15.879,2.82 -22.109,1.187 -2.375,-0.594 -4.528,-0.965 -4.75,-0.816 -0.149,0.222 0.593,2.375 1.707,4.894 1.113,2.449 1.855,4.676 1.633,4.899 -0.372,0.371 -21.219,9.867 -21.664,9.867 -0.075,0 -6.973,-15.434 -15.356,-34.277 z m 865.637,38.281 c -5.711,-2.594 -10.684,-4.821 -10.981,-4.895 -0.297,-0.148 0.446,-9.941 1.633,-21.738 1.262,-11.871 2.449,-23.813 2.746,-26.707 0.223,-2.82 0.594,-5.414 0.817,-5.711 0.148,-0.371 0,-0.594 -0.371,-0.594 -0.372,0 -3.489,3.114 -6.903,6.824 -3.41,3.786 -6.898,7.567 -7.715,8.457 -0.816,0.817 -6.304,6.75 -12.168,13.208 -5.859,6.378 -11.054,11.496 -11.5,11.277 -4.894,-2.004 -21.734,-9.645 -22.105,-10.016 -0.297,-0.297 12.387,-13.578 28.266,-29.676 l 28.859,-29.156 12.465,5.563 12.535,5.562 0.074,5.418 c 0,3.043 -0.223,9.348 -0.519,14.02 -0.297,4.675 -0.743,13.875 -1.039,20.402 -0.293,6.531 -0.665,12.391 -0.739,12.984 -0.222,1.188 -1.41,25.223 -1.41,28.043 0,0.891 -0.371,1.633 -0.742,1.559 -0.445,0 -5.492,-2.227 -11.203,-4.824 z M 595.996,268.67 c -6.305,-10.757 -5.266,-10.164 -11.648,-6.16 -1.633,1.039 -2.965,1.707 -3.039,1.559 -0.075,-0.149 -2.079,-3.485 -4.379,-7.418 l -4.157,-7.195 4.231,-2.375 c 2.301,-1.336 4.379,-2.524 4.527,-2.598 0.149,-0.149 -4.304,-8.086 -9.941,-17.731 -5.567,-9.57 -10.758,-19.289 -11.574,-21.515 -4.602,-13.203 2.597,-23.59 23.144,-33.309 3.043,-1.484 6.531,-2.82 7.867,-3.117 2.297,-0.445 2.371,-0.297 6.528,6.75 2.3,3.934 4.078,7.273 3.859,7.496 -0.148,0.149 -2.523,0.961 -5.195,1.703 -5.117,1.41 -9.348,4.082 -11.426,7.199 -2.301,3.485 -0.965,7.122 8.828,23.961 4.973,8.606 9.274,15.657 9.496,15.657 0.223,0 4.676,-2.524 9.942,-5.567 5.269,-3.043 9.793,-5.562 10.089,-5.562 0.594,0 9.125,14.168 8.754,14.465 -0.148,0.074 -4.078,2.3 -8.754,5.046 -13.054,7.493 -12.312,5.489 -6.007,16.395 2.968,5.195 5.339,9.57 5.191,9.645 -0.148,0.148 -4.894,2.968 -10.535,6.23 l -10.164,6.012 -5.637,-9.571 z M 1650,280.838 c -9.125,-2.004 -22.555,-10.757 -28.934,-18.847 -12.019,-15.133 -10.832,-34.867 2.965,-51.707 7.496,-9.125 15.953,-13.207 27.379,-13.133 10.61,0.074 19.586,3.191 31.379,10.906 10.09,6.602 23.445,20.031 22.406,22.629 -0.668,1.707 -9.57,15.727 -10.015,15.727 -1.039,0 -2.227,-1.559 -4.821,-6.305 -4.304,-7.863 -12.539,-15.656 -20.625,-19.66 -5.714,-2.821 -7.199,-3.266 -11.5,-3.266 -5.566,0 -9.421,1.559 -13.058,5.344 l -2.078,2.297 4.304,2.746 c 10.684,6.824 43.7,27.969 43.848,28.043 0.516,0.445 -8.98,13.43 -12.02,16.394 -8.828,8.684 -17.878,11.426 -29.23,8.832 z m 5.711,-19.144 c 2.894,-1.555 7.269,-6.231 6.383,-6.973 -0.371,-0.371 -5.864,-3.929 -12.168,-7.937 -6.309,-4.008 -12.242,-7.789 -13.207,-8.383 -1.559,-1.039 -1.707,-0.965 -2.821,1.781 -2.519,6.082 -0.96,12.238 4.305,17.063 5.637,5.043 12.836,6.898 17.508,4.449 z M 450.066,324.756 c -8.902,-11.5 -16.988,-22.406 -18.027,-24.113 -4.082,-7.269 -4.973,-14.465 -2.523,-20.992 4.082,-10.906 15.656,-18.324 30.64,-19.734 l 5.785,-0.52 -2.371,-3.191 c -1.261,-1.782 -2.078,-3.489 -1.707,-3.786 1.485,-1.257 17.063,-13.203 17.879,-13.648 0.52,-0.371 9.422,10.535 23.891,29.156 12.758,16.321 23.219,30.121 23.441,30.567 0.223,0.816 -2.672,3.261 -16.988,14.093 l -1.707,1.262 -16.617,-21.441 -16.621,-21.512 -3.262,0.445 c -7.195,0.961 -16.988,8.012 -17.211,12.313 -0.297,6.234 0.594,7.789 17.582,29.601 11.574,14.914 13.648,18.028 12.832,18.77 -2.816,2.598 -17.656,13.801 -18.25,13.801 -0.297,-0.075 -7.863,-9.496 -16.766,-21.071 z m 1324.274,55.567 c -10.238,-3.781 -17.879,-12.906 -20.996,-25.223 -0.742,-2.82 -1.485,-5.344 -1.633,-5.566 -0.148,-0.223 -1.41,0.89 -2.742,2.449 -1.781,2.004 -2.821,2.672 -3.563,2.226 -0.519,-0.296 -4.75,-3.933 -9.273,-7.937 l -8.309,-7.418 2.078,-2.227 c 2.075,-2.226 48.446,-54.679 48.891,-55.273 0.219,-0.367 17.508,14.988 17.805,15.953 0.148,0.371 -3.34,4.672 -7.645,9.57 -4.301,4.895 -12.387,14.02 -17.879,20.254 l -10.015,11.352 1.484,3.633 c 2.004,4.824 4.898,8.531 8.605,11.054 4.157,2.821 6.532,3.266 9.868,1.93 3.711,-1.558 7.347,-5.121 23.816,-23.594 l 13.723,-15.429 2.3,2.152 c 1.262,1.113 5.196,4.672 8.829,7.863 3.562,3.192 6.457,6.082 6.457,6.453 0,0.817 -34.871,39.914 -37.911,42.512 -4.675,4.004 -10.906,6.379 -16.25,6.305 -2.671,0 -6.082,-0.52 -7.64,-1.039 z M 343.309,439.749 c -13.653,-4.821 -26.114,-17.879 -28.786,-30.196 -1.41,-6.304 -0.668,-14.836 1.856,-21.07 5.859,-14.762 21.144,-30.711 37.316,-38.875 l 3.192,-1.629 6.972,6.527 c 3.86,3.563 7.047,6.75 7.047,6.973 0,0.891 -1.855,1.93 -5.933,3.191 -16.25,5.192 -29.899,19.586 -29.899,31.457 0,4.375 1.856,9.274 4.301,11.278 1.039,0.887 1.41,0.738 2.895,-0.817 0.964,-0.964 9.496,-10.089 19.066,-20.328 9.496,-10.164 17.582,-18.695 17.953,-18.843 0.371,-0.149 3.563,2.816 7.199,6.453 8.828,9.05 12.09,15.504 12.535,24.406 0.297,7.719 -1.187,12.613 -5.859,19.808 -3.934,5.938 -11.797,13.801 -17.582,17.438 -9.793,6.156 -22.184,7.789 -32.273,4.227 z m 24.851,-18.25 c 6.012,-2.821 10.906,-9.719 10.906,-15.207 0,-3.192 -3.781,-10.758 -5.339,-10.758 -0.446,0 -4.008,3.41 -7.938,7.566 -15.582,16.617 -14.543,15.356 -13.355,16.543 3.636,3.563 10.386,4.379 15.726,1.856 z m 1492.832,50.746 c -3.711,-4.305 -7.195,-8.309 -7.789,-8.828 -1.039,-0.891 -2.226,-0.149 -9.273,5.933 -4.528,3.859 -8.383,6.973 -8.606,6.899 -0.297,-0.149 -3.859,-4.227 -8.086,-9.051 l -7.57,-8.903 3.266,-2.964 c 1.781,-1.707 5.488,-5.047 8.234,-7.497 l 5.047,-4.449 -3.34,-3.785 -3.414,-3.855 6.531,-5.567 6.528,-5.562 3.191,3.633 c 1.703,2.003 3.336,3.636 3.633,3.636 0.297,0 7.492,-6.008 16.027,-13.281 17.731,-15.207 21.363,-17.434 28.637,-17.434 6.75,-0.074 10.758,2.079 18.398,9.719 5.489,5.492 13.5,16.469 13.5,18.473 0,0.816 -12.535,11.797 -12.906,11.351 -0.148,-0.148 -1.262,-2.3 -2.523,-4.746 -4.231,-8.386 -9.793,-12.019 -15.059,-9.793 -2.598,1.035 -29.602,23.813 -29.602,24.926 0,0.297 3.336,4.527 7.493,9.274 4.152,4.824 7.343,8.753 7.195,8.902 -0.074,0.074 -2.524,2.152 -5.414,4.601 -2.82,2.446 -5.715,4.821 -6.309,5.266 -0.965,0.668 -2.297,-0.519 -7.789,-6.898 z M 235.438,587.608 c -21.145,-13.949 -40.434,-26.559 -42.731,-28.043 l -4.23,-2.672 6.23,-9.644 c 3.414,-5.266 6.531,-9.719 6.828,-9.793 0.297,-0.075 13.426,8.308 29.156,18.621 15.727,10.312 28.711,18.695 28.86,18.547 0.148,-0.149 -1.188,-3.559 -3.043,-7.493 -4.676,-9.941 -15.875,-34.273 -20.996,-45.476 -2.301,-5.121 -5.489,-12.02 -7.047,-15.434 l -2.895,-6.082 6.75,-10.238 c 3.711,-5.563 6.828,-10.238 6.903,-10.387 0.148,-0.222 68.031,44.145 81.754,53.344 l 3.859,2.594 -5.934,9.273 c -3.339,5.047 -6.234,9.496 -6.605,9.793 -0.297,0.371 -11.277,-6.453 -24.481,-15.059 -13.132,-8.605 -24.039,-15.578 -24.187,-15.429 -0.223,0.297 14.914,34.867 23.074,52.672 1.781,3.933 3.488,7.937 3.707,8.976 0.371,1.41 -1.258,4.305 -7.937,14.469 l -8.457,12.758 -38.578,-25.297 z m 1763.843,160.25 c -16.84,-17.289 -26.558,-43.922 -22.629,-62.246 1.485,-6.824 5.493,-15.356 9.496,-20.403 10.461,-12.687 30.047,-21.886 46.813,-21.886 23.965,0 43.625,18.992 51.637,50.078 1.855,6.973 4.23,23.371 3.636,24.93 -0.371,0.961 -45.629,21.214 -46.074,20.621 -1.109,-1.407 -18.769,-43.028 -18.472,-43.25 2.449,-1.485 16.175,-7.121 16.843,-6.825 0.446,0.149 2.594,4.301 4.746,9.274 l 3.934,8.902 2.297,-0.965 c 1.336,-0.593 5.344,-2.3 8.98,-3.859 3.559,-1.559 6.676,-3.262 6.899,-3.855 0.593,-1.411 -5.121,-12.614 -8.68,-17.141 -6.086,-7.641 -15.285,-11.719 -24.855,-10.977 -9.2,0.739 -19.289,5.118 -26.188,11.274 -17.137,15.508 -11.277,41.547 12.688,56.312 6.082,3.707 8.605,5.934 7.789,6.75 -0.743,0.668 -21.071,9.274 -21.961,9.274 -0.594,0 -3.633,-2.672 -6.899,-6.008 z m 83.832,145.41 c -13.054,-1.855 -22.031,-11.203 -26.781,-27.824 -2.227,-7.863 -2.375,-21.735 -0.371,-27.598 4.379,-12.461 12.242,-19.957 25.816,-24.629 15.805,-5.492 30.121,-2.746 40.36,7.715 11.277,11.5 18.472,35.906 16.398,55.492 l -0.519,4.899 -9.348,2.301 c -7.496,1.851 -9.496,2.148 -10.016,1.406 -0.297,-0.52 -0.371,-1.481 -0.148,-2.074 0.223,-0.594 1.035,-3.934 1.777,-7.422 3.414,-16.024 -2.148,-34.348 -12.015,-39.395 -3.043,-1.555 -9.348,-2.668 -11.203,-1.926 -0.891,0.371 0.148,5.34 5.785,28.118 3.859,15.207 6.902,27.671 6.828,27.746 -0.074,0.074 -3.117,0.816 -6.828,1.632 -8.235,1.856 -14.317,2.375 -19.735,1.559 z m 6.012,-24.187 c -0.074,-1.856 -7.199,-29.899 -7.793,-30.493 -0.887,-0.964 -7.269,3.192 -9.051,5.864 -4.894,7.492 -1.48,21.586 6.086,24.851 1.188,0.52 4.153,0.965 6.528,1.039 3.562,0 4.23,-0.222 4.23,-1.261 z M 91.289,929.397 c -18.918,-10.832 -34.5,-19.809 -34.644,-19.957 -0.446,-0.445 4.894,-24.484 5.562,-25.148 0.297,-0.297 7.344,-1.04 15.652,-1.708 8.383,-0.593 16.399,-1.261 17.805,-1.41 1.41,-0.222 6.383,-0.593 10.981,-0.89 4.527,-0.297 8.312,-0.742 8.312,-0.965 0,-0.371 -6.977,-4.527 -36.727,-21.813 -4.894,-2.89 -8.976,-5.191 -9.05,-5.265 -0.075,-0.074 1.113,-5.567 2.597,-12.168 1.782,-7.789 3.118,-12.317 3.86,-12.688 0.59,-0.371 4.301,-0.816 8.16,-1.113 7.789,-0.516 22.848,-1.703 28.562,-2.297 2.079,-0.148 8.383,-0.668 14.094,-1.113 5.715,-0.445 11.871,-0.891 13.727,-1.113 10.164,-0.965 14.836,-1.262 14.836,-0.817 0,0.817 -5.192,23.668 -5.34,23.817 -0.149,0.074 -12.02,0.371 -26.485,0.668 -14.468,0.218 -26.414,0.589 -26.562,0.738 -0.371,0.371 1.707,1.633 25.004,14.914 11.203,6.379 20.699,11.871 21.07,12.242 0.52,0.52 -3.488,20.551 -4.379,21.363 -0.148,0.223 -3.414,0.594 -7.195,0.965 -31.012,2.598 -42.883,3.711 -45.109,4.082 -2.446,0.446 -0.961,1.262 21.738,12.688 15.211,7.566 24.262,12.461 24.039,13.054 -0.149,0.52 -1.484,6.012 -2.82,12.168 -1.411,6.231 -2.747,11.352 -2.969,11.352 -0.223,0 -15.875,-8.828 -34.719,-19.586 z m 2007.852,119.445 c -4.75,-1.484 -7.348,-3.117 -10.313,-6.383 -3.488,-3.855 -5.492,-8.457 -6.383,-14.761 -1.187,-8.68 -0.148,-12.762 7.274,-27.746 0.148,-0.371 -1.485,-0.52 -3.637,-0.446 l -4.008,0.223 -1.039,-11.723 c -0.738,-8.308 -0.812,-11.871 -0.222,-12.242 1.113,-0.668 75.007,-7.121 75.527,-6.527 0.742,0.742 2.594,22.996 2.004,23.515 -0.371,0.297 -11.278,1.411 -24.336,2.524 -33.313,2.82 -29.676,1.93 -31.457,7.344 -2.668,7.718 -1.707,15.73 2.301,19.586 2.078,2.003 2.523,2.078 10.089,2.3 4.379,0.075 16.469,-0.593 26.856,-1.632 10.387,-0.965 19.141,-1.559 19.363,-1.262 0.594,0.594 2.375,23.074 1.93,23.594 -0.742,0.668 -47.406,4.671 -54.305,4.597 -3.637,0 -8.015,-0.441 -9.644,-0.961 z M 58.125,1106.858 c -8.457,-0.965 -14.391,-5.418 -18.324,-13.875 -2.004,-4.231 -2.301,-5.711 -2.301,-11.203 -0.074,-8.457 2.078,-15.133 6.977,-22.11 l 3.781,-5.339 -7.492,0 0,-9.942 c 0,-5.414 0.222,-10.98 0.519,-12.316 l 0.445,-2.446 20.106,0.594 c 39.394,1.035 43.031,1.629 48.891,7.641 5.636,5.859 7.789,12.609 8.382,26.855 0.371,8.086 0.149,11.871 -1.039,19.66 -2.152,13.207 -3.113,17.508 -4.152,17.879 -0.52,0.223 -4.824,0.075 -9.496,-0.222 l -8.609,-0.594 2.597,-8.16 c 3.34,-10.832 4.379,-18.028 3.34,-24.703 -1.262,-8.684 -4.23,-12.762 -9.273,-12.762 -1.633,0 -1.782,0.297 -2.672,8.68 -2.301,22.257 -6.676,33.535 -15.133,39.172 -4.527,2.968 -9.793,4.007 -16.547,3.191 z m 10.535,-25.449 c 2.598,-1.707 4.602,-6.899 5.863,-14.985 1.778,-12.242 2.372,-11.203 -6.085,-11.5 -4.004,-0.148 -7.715,0.075 -8.235,0.446 -0.594,0.445 -1.93,2.449 -2.969,4.449 -1.777,3.34 -2,4.601 -2,10.832 0,5.641 0.297,7.422 1.411,9.125 2.296,3.414 8.085,4.23 12.015,1.633 z m 7.274,126.715 c 0.589,-1.114 2.148,-3.559 3.336,-5.415 1.261,-1.781 2.152,-3.339 2.078,-3.488 -0.149,-0.074 -8.309,0.52 -18.25,1.41 -13.875,1.114 -18.176,1.262 -18.621,0.594 -0.297,-0.445 -0.743,-3.933 -1.039,-7.641 -0.297,-3.785 -0.668,-8.828 -0.891,-11.351 l -0.445,-4.453 26.187,-2.149 26.191,-2.226 3.856,-6.012 3.934,-6.008 7.566,-0.519 c 4.156,-0.297 7.641,-0.446 7.715,-0.297 0.148,0.148 -1.262,2.449 -3.039,5.269 -1.782,2.743 -3.266,5.266 -3.266,5.563 0,0.297 8.457,-0.149 18.77,-1.039 10.238,-0.891 18.843,-1.336 19.066,-0.965 0.594,0.816 2.375,23 2.004,23.445 -0.297,0.297 -48.668,4.598 -51.934,4.672 -0.816,0 -2.597,2.078 -4.82,5.492 l -3.488,5.563 -4.824,0.445 c -2.668,0.223 -6.231,0.594 -8.012,0.817 l -3.188,0.371 1.114,-2.078 z m 2068.089,3.71 c -9.421,-0.445 -9.644,-0.816 -5.265,-7.566 6.156,-9.644 8.976,-21.07 7.64,-31.012 -0.89,-6.457 -2.597,-10.089 -6.234,-13.652 -2.519,-2.449 -8.976,-5.191 -9.941,-4.227 -0.297,0.372 -4.004,49.707 -4.004,54.231 0,2.004 -0.074,2.004 -4.602,2.004 -12.387,-0.074 -24.035,-4.231 -30.195,-10.758 -4.449,-4.676 -5.711,-7.047 -7.567,-14.246 -3.484,-13.723 0.075,-32.195 8.086,-42.211 9.125,-11.352 24.633,-16.473 40.657,-13.43 16.914,3.192 27.226,14.024 30.418,32.051 2.449,13.723 0.668,28.266 -5.118,43.176 l -2.375,6.16 -3.339,-0.148 c -1.856,-0.075 -5.489,-0.223 -8.161,-0.372 z m -31.16,-26.113 c 0,-0.297 0.52,-7.57 1.114,-16.027 0.593,-8.531 0.964,-15.578 0.742,-15.801 -0.223,-0.223 -2.227,0 -4.528,0.52 -7.566,1.707 -11.793,8.16 -11.793,17.879 0.075,5.933 2.149,9.496 7.047,12.019 3.785,2 7.418,2.742 7.418,1.41 z M 88.766,1332.538 c -11.129,-1.407 -20.551,-7.864 -26.559,-18.25 -5.195,-9.125 -8.086,-20.254 -8.086,-31.379 0,-9.719 1.188,-15.582 3.262,-16.028 4.008,-0.964 17.289,-3.336 18.402,-3.336 2.074,0 1.852,2.372 -0.89,7.715 -2.524,4.895 -2.598,5.414 -2.598,12.981 0,7.273 0.223,8.238 2.226,12.316 4.227,8.383 11.719,11.797 22.477,10.09 6.977,-1.039 12.91,-4.004 16.547,-8.16 3.484,-3.934 4.672,-7.789 4.152,-14.172 -0.519,-6.898 -3.187,-12.313 -9.051,-18.324 -7.566,-7.789 -7.64,-7.715 4.899,-10.09 5.785,-1.113 10.609,-1.926 10.609,-1.852 0.074,0.145 0.813,1.258 1.629,2.52 12.02,17.137 14.098,43.551 4.602,58.312 -3.043,4.825 -9.348,10.387 -14.692,13.133 -7.269,3.563 -18.621,5.488 -26.929,4.524 z m 1983.441,-0.739 c -5.414,-1.113 -10.09,-2.226 -10.312,-2.523 -0.887,-0.891 1.187,-8.902 3.636,-13.652 1.559,-3.043 4.082,-6.305 7.418,-9.497 3.043,-2.82 4.75,-4.894 4.156,-5.117 -0.519,-0.148 -2.894,-0.668 -5.195,-1.113 -2.371,-0.445 -4.301,-1.113 -4.301,-1.41 0,-1.336 4.45,-22.629 4.821,-22.926 0.371,-0.371 74.488,14.395 75.082,14.914 0.074,0.149 -0.817,5.488 -2.153,11.871 -1.484,7.641 -2.597,11.645 -3.265,11.645 -0.446,0 -11.649,-2.149 -24.778,-4.821 -17.359,-3.562 -24.187,-4.675 -24.855,-4.082 -2.445,2.079 -6.453,14.914 -7.418,23.965 -0.445,3.93 -0.816,4.969 -1.781,4.895 -0.668,-0.074 -5.637,-0.965 -11.055,-2.149 z m -5.191,141.996 c -14.395,-5.046 -27.301,-9.867 -28.563,-10.757 -7.047,-4.821 -10.09,-9.942 -10.683,-18.028 -0.891,-11.648 4.968,-30.418 14.835,-47.554 1.708,-2.821 3.043,-5.27 3.118,-5.344 0.297,-0.52 16.988,5.566 17.211,6.16 0.148,0.445 -1.782,3.559 -4.301,7.047 -7.418,10.164 -11.055,19.437 -11.055,28.265 0,3.711 0.297,4.602 2.301,6.899 3.336,3.785 4.523,3.414 6.973,-2 7.863,-17.809 11.796,-24.559 17.433,-29.824 7.195,-6.68 15.137,-8.68 23.445,-5.864 9.497,3.192 14.688,9.2 16.766,19.289 2.152,10.536 -5.488,25.895 -16.098,32.645 -1.855,1.113 -3.339,2.301 -3.339,2.523 0,0.297 0.816,0.743 1.855,0.965 0.965,0.219 2.598,0.739 3.559,1.11 l 1.781,0.668 -2.816,8.457 c -4.157,12.093 -5.196,14.691 -5.715,14.617 -0.297,-0.074 -12.317,-4.231 -26.707,-9.274 z m 18.769,-22.257 c 5.192,-3.93 9.867,-14.539 8.828,-20.032 -0.593,-3.113 -3.117,-5.414 -6.453,-6.007 -3.711,-0.594 -6.012,0.148 -8.68,2.82 -2.226,2.297 -10.386,17.433 -10.386,19.437 0,0.743 8.234,4.078 13.945,5.637 0.149,0.074 1.41,-0.816 2.746,-1.855 z m -1959.777,30.789 c -13.797,-3.266 -24.11,-14.614 -29.305,-32.348 -2.148,-7.344 -2.594,-17.508 -1.039,-23.219 2.82,-10.535 10.164,-18.621 21.887,-24.187 7.273,-3.485 13.058,-4.821 20.773,-4.821 15.36,-0.074 26.93,7.938 34.203,23.59 3.411,7.2 4.746,12.688 5.266,21.071 0.371,6.011 0.148,8.011 -1.188,12.316 -1.855,6.156 -6.378,13.355 -10.683,16.84 -10.758,8.754 -28.34,13.504 -39.914,10.758 z m 10.758,-25.149 c 11.871,-3.043 20.922,-9.199 22.48,-15.359 1.707,-6.824 -1.781,-14.688 -7.937,-17.879 -2.895,-1.484 -4.082,-1.707 -8.903,-1.336 -9.422,0.594 -20.328,5.047 -25.301,10.238 -4.3,4.528 -5.265,8.977 -3.261,14.766 3.484,9.867 10.461,12.758 22.922,9.57 z m 1894.714,140.364 c -3.785,-1.93 -6.902,-3.708 -6.902,-3.93 0,-0.297 1.336,-2.004 2.969,-3.785 6.156,-6.676 7.641,-13.282 4.008,-17.657 -1.41,-1.632 -7.051,-4.898 -18.18,-10.461 -8.977,-4.453 -16.395,-8.085 -16.617,-8.085 -0.223,0 -2.672,4.671 -5.563,10.386 -2.894,5.711 -5.343,10.387 -5.566,10.387 -0.965,0 -14.465,-7.125 -14.465,-7.57 0,-0.371 2.152,-4.969 4.82,-10.239 2.672,-5.265 4.825,-9.941 4.825,-10.386 0,-0.368 -4.379,-2.891 -9.645,-5.563 l -9.644,-4.82 5.265,-10.61 c 2.895,-5.789 5.418,-10.609 5.492,-10.757 0.149,-0.149 4.598,1.929 9.942,4.597 5.34,2.672 9.793,4.899 9.941,4.899 0.149,0 1.184,-2.004 2.371,-4.453 1.188,-2.45 2.375,-4.45 2.746,-4.45 0.52,0 13.95,6.454 14.543,7.047 0.149,0.149 -0.816,2.301 -2.078,4.821 -1.262,2.523 -2.226,4.675 -2.078,4.75 0.149,0 8.457,4.156 18.547,9.199 24.855,12.39 28.859,16.097 28.859,26.93 0.075,5.417 -1.632,11.203 -5.265,18.398 -3.266,6.605 -9.2,14.914 -10.535,14.84 -0.52,0 -4.082,-1.559 -7.79,-3.488 z m -1870.304,-3.411 -5.344,-10.757 15.731,-8.09 c 8.679,-4.45 18.843,-9.719 22.625,-11.571 3.71,-1.855 6.828,-3.859 6.828,-4.379 -0.075,-4.746 -5.418,-17.953 -10.387,-25.445 l -1.559,-2.375 4.672,-2.597 c 6.531,-3.559 15.285,-7.938 16.028,-7.938 0.371,0 1.781,2.375 3.113,5.344 2.078,4.523 2.523,6.304 2.82,12.386 0.149,3.934 -0.074,8.606 -0.519,10.461 -0.371,1.782 -0.594,3.414 -0.446,3.563 0.075,0.148 2.227,-0.742 4.75,-2.004 2.45,-1.262 4.598,-2.301 4.672,-2.301 0.52,0 11.352,21.442 10.981,21.739 -0.743,0.593 -67.586,34.644 -68.106,34.644 -0.297,0 -2.969,-4.82 -5.859,-10.68 z m 1780.683,121.223 c -10.609,-2.82 -22.035,-10.832 -27.82,-19.437 -9.644,-14.54 -7.348,-32.645 6.305,-49.559 15.578,-19.438 38.429,-21.145 58.461,-4.449 15.058,12.609 18.547,28.562 10.09,46.664 -6.602,14.168 -19.067,25.297 -31.012,27.523 -5.711,1.039 -10.09,0.891 -16.024,-0.742 z m 22.329,-22.926 c 3.339,-1.48 6.234,-4.894 8.089,-9.199 3.114,-7.566 -0.742,-15.059 -11.648,-22.551 -9.422,-6.383 -17.063,-8.457 -22.926,-6.308 -4.598,1.781 -9.57,9.125 -9.57,14.246 0,5.859 5.344,13.133 13.726,18.547 9.793,6.379 16.395,7.937 22.329,5.265 z m -1682.977,83.317 -8.902,-11.5 5.566,-7.196 c 4.82,-6.308 14.539,-19.066 22.18,-29.082 1.41,-1.855 5.047,-6.605 8.164,-10.535 3.039,-4.008 5.265,-7.269 4.894,-7.269 -0.593,0 -12.39,4.523 -15.281,5.933 -0.816,0.371 -5.344,2.227 -10.016,4.156 -4.675,1.926 -14.988,6.082 -22.851,9.274 -7.863,3.262 -14.465,5.859 -14.613,5.859 -0.52,0 -17.438,-22.109 -17.438,-22.926 0,-0.371 1.633,-2.816 3.563,-5.414 2.003,-2.597 6.898,-8.976 10.906,-14.32 4.004,-5.266 9.867,-12.98 12.984,-17.062 5.711,-7.493 16.395,-21.516 28.86,-37.985 3.781,-5.043 7.121,-9.125 7.343,-9.051 0.817,0 15.727,19.735 15.727,20.774 0,0.445 -1.93,3.191 -4.227,6.082 -4.082,4.898 -9.867,11.945 -31.308,38.355 -9.793,12.094 -9.793,12.02 -0.817,8.012 2.672,-1.183 6.157,-2.816 7.789,-3.558 1.633,-0.743 5.789,-2.45 9.274,-3.934 3.488,-1.41 8.457,-3.559 11.129,-4.82 2.672,-1.188 8.976,-3.934 14.023,-6.012 5.117,-2.149 10.758,-4.598 12.535,-5.488 l 3.34,-1.485 1.336,1.781 c 0.668,0.965 4.301,5.637 7.938,10.313 7.789,9.941 8.011,7.418 -1.93,20.402 -3.559,4.598 -10.461,13.575 -15.356,20.032 -4.898,6.453 -11.351,14.836 -14.32,18.621 -2.89,3.855 -5.043,6.972 -4.672,6.972 0.297,0 4.375,-1.781 9.051,-4.007 4.672,-2.149 10.313,-4.821 12.539,-5.86 2.223,-1.039 7.789,-3.562 12.238,-5.711 28.637,-13.578 30.27,-14.246 31.161,-13.207 2.226,2.449 16.097,20.774 15.8,20.922 -0.074,0.148 -2.445,1.113 -5.191,2.227 -5.785,2.222 -23.965,9.793 -26.188,10.832 -0.816,0.367 -10.832,4.523 -22.257,9.273 -11.426,4.746 -21.442,8.902 -22.258,9.274 -2.227,1.039 -21.293,8.902 -21.59,8.902 -0.145,0 -4.227,-5.195 -9.125,-11.574 z m 1593.879,16.394 c -10.164,-9.125 -19.067,-16.617 -19.66,-16.691 -0.594,0 -3.266,1.633 -5.938,3.636 -4.152,3.188 -6.898,6.083 -14.539,15.504 l -1.633,1.93 -5.047,-4.379 c -2.742,-2.449 -6.75,-6.008 -8.753,-7.937 l -3.782,-3.489 4.078,-4.152 c 4.825,-4.973 11.872,-8.754 18.622,-10.09 2.597,-0.519 5.046,-1.187 5.343,-1.41 0.371,-0.297 -1.113,-1.93 -3.117,-3.711 -2.078,-1.703 -3.781,-3.336 -3.781,-3.633 0,-0.668 14.836,-17.433 15.652,-17.73 0.445,-0.223 39.84,34.347 56.903,49.851 0.667,0.668 -0.817,2.821 -7.047,9.719 -4.305,4.899 -8.086,8.981 -8.309,9.055 -0.223,0.074 -8.754,-7.348 -18.992,-16.473 z M 572.699,1979.096 c -2.965,-6.379 -5.711,-11.277 -6.008,-10.98 -0.296,0.297 -2.746,4.601 -5.488,9.496 -2.746,4.898 -5.195,9.199 -5.492,9.496 -0.594,0.594 -12.609,-6.082 -12.684,-7.047 0,-0.519 6.453,-11.055 9.719,-15.949 1.184,-1.707 2.149,-3.34 2.149,-3.563 0,-0.297 -2.446,-0.297 -5.34,-0.074 -2.969,0.223 -8.754,0.594 -12.91,0.817 l -7.493,0.445 -0.519,-4.602 c -0.223,-2.519 -0.445,-5.636 -0.445,-6.972 l 0,-2.301 14.097,0.297 c 7.863,0.148 14.094,0 14.094,-0.371 0,-0.52 -10.906,-20.551 -13.059,-24.11 -0.218,-0.297 2.375,-1.929 5.715,-3.636 3.637,-1.782 6.231,-2.747 6.528,-2.301 0.222,0.445 2.82,5.64 5.64,11.574 2.891,5.934 5.34,10.758 5.563,10.758 0.445,0.074 0.668,-0.223 7.121,-11.946 2.375,-4.449 4.676,-8.011 5.047,-8.011 0.519,0 11.277,6.23 12.168,7.047 0.148,0.148 -1.411,2.82 -3.489,6.086 -7.789,12.238 -9.125,14.39 -8.902,14.613 0.148,0.148 6.008,-0.149 13.059,-0.594 l 12.683,-0.816 0.445,2.597 c 0.223,1.41 0.446,4.528 0.446,6.825 l 0,4.304 -14.094,0.149 -14.023,0.222 6.601,11.871 c 3.711,6.528 6.68,12.09 6.68,12.313 0,0.371 -11.203,5.863 -12.02,5.863 -0.148,0 -2.746,-5.195 -5.789,-11.5 z m 1019.137,9.199 -5.789,-2.968 3.117,-5.711 c 1.707,-3.117 4.75,-8.606 6.676,-12.094 2.004,-3.559 3.637,-6.676 3.637,-6.898 0,-0.297 -6.379,-0.446 -14.172,-0.297 l -14.242,0.222 0.445,-6.527 c 0.148,-3.563 0.519,-6.68 0.742,-6.902 0.148,-0.223 5.934,-0.075 12.758,0.222 6.754,0.297 12.465,0.446 12.613,0.371 0.149,-0.148 -1.781,-3.484 -4.375,-7.418 -2.523,-4.007 -5.344,-8.382 -6.234,-9.941 l -1.707,-2.672 6.457,-3.855 c 3.855,-2.375 6.601,-3.637 6.898,-3.118 0.223,0.446 2.82,5.118 5.637,10.461 2.894,5.34 5.418,9.645 5.789,9.497 0.297,-0.075 2.894,-5.122 5.711,-11.278 2.894,-6.082 5.418,-11.203 5.641,-11.426 0.222,-0.296 12.164,5.121 12.164,5.567 0,0.222 -11.348,20.773 -12.313,22.328 -0.594,0.891 -1.039,1.855 -1.039,2.078 0,0.223 6.379,0.371 14.168,0.371 l 14.246,0 -0.519,5.047 c -0.223,2.742 -0.446,5.785 -0.446,6.75 l 0,1.707 -13.058,-0.519 c -8.086,-0.372 -12.981,-0.297 -12.684,0.148 0.223,0.371 2.965,4.598 6.008,9.422 3.117,4.82 5.637,9.051 5.637,9.422 0,0.297 -2.743,2.226 -6.082,4.3 l -6.157,3.637 -3.562,-6.008 c -1.93,-3.339 -4.375,-7.867 -5.563,-9.941 -1.113,-2.152 -2.226,-3.934 -2.449,-3.934 -0.223,0 -2.894,5.196 -5.863,11.5 -3.039,6.305 -5.637,11.5 -5.86,11.5 -0.222,-0.074 -3.043,-1.41 -6.23,-3.043 z"
         style="fill:#000000;fill-opacity:1;fill-rule:nonzero;stroke:none"
         id="path38"
         inkscape:connector-curvature="0" /></g></g></svg>