<?xml version="1.0" encoding="UTF-8" standalone="no"?>
<!-- Created with Inkscape (http://www.inkscape.org/) -->

<svg
   xmlns:dc="http://purl.org/dc/elements/1.1/"
   xmlns:cc="http://creativecommons.org/ns#"
   xmlns:rdf="http://www.w3.org/1999/02/22-rdf-syntax-ns#"
   xmlns:svg="http://www.w3.org/2000/svg"
   xmlns="http://www.w3.org/2000/svg"
   xmlns:sodipodi="http://sodipodi.sourceforge.net/DTD/sodipodi-0.dtd"
   xmlns:inkscape="http://www.inkscape.org/namespaces/inkscape"
   id="svg2"
   version="1.1"
   inkscape:version="0.91 r13725"
   xml:space="preserve"
   width="1750.1965"
   height="1389.77"
   viewBox="0 0 1750.1965 1389.77"
   sodipodi:docname="LOGO-B.svg"><metadata
     id="metadata8"><rdf:RDF><cc:Work
         rdf:about=""><dc:format>image/svg+xml</dc:format><dc:type
           rdf:resource="http://purl.org/dc/dcmitype/StillImage" /><dc:title></dc:title></cc:Work></rdf:RDF></metadata><defs
     id="defs6" /><sodipodi:namedview
     pagecolor="#ffffff"
     bordercolor="#666666"
     borderopacity="1"
     objecttolerance="10"
     gridtolerance="10"
     guidetolerance="10"
     inkscape:pageopacity="0"
     inkscape:pageshadow="2"
     inkscape:window-width="1920"
     inkscape:window-height="1056"
     id="namedview4"
     showgrid="false"
     fit-margin-top="0"
     fit-margin-left="0"
     fit-margin-right="0"
     fit-margin-bottom="0"
     inkscape:zoom="0.085498678"
     inkscape:cx="858.47511"
     inkscape:cy="705.97944"
     inkscape:window-x="0"
     inkscape:window-y="24"
     inkscape:window-maximized="1"
     inkscape:current-layer="g10" /><g
     id="g10"
     inkscape:groupmode="layer"
     inkscape:label="LOGO-B"
     transform="matrix(1.25,0,0,-1.25,-517.515,2063.9288)"><g
       id="g12"><path
         d="m 1233.859,567.459 c -0.039,-0.035 -0.082,-0.832 0.254,-0.492 0.039,0.035 0.082,0.832 -0.254,0.492 z"
         style="fill:#ffffff;fill-opacity:1;fill-rule:nonzero;stroke:none"
         id="path14"
         inkscape:connector-curvature="0" /><path
         d="m 1665.195,1650.624 c -1.726,0.078 -3.468,0.031 -5.175,-0.243 -8.379,-1.336 -16.723,-3.464 -24.54,-6.765 -7.128,-3.012 -13.917,-6.996 -20.031,-11.742 -6.707,-5.211 -12.562,-11.528 -17.929,-18.114 -5.067,-6.218 -9.602,-12.933 -13.325,-20.039 -3.929,-7.5 -6.82,-15.535 -9.379,-23.605 -2.043,-6.453 -3.707,-13.059 -4.734,-19.754 -1.027,-6.707 -1.629,-13.531 -1.402,-20.317 0.218,-6.605 1.379,-13.168 2.679,-19.652 1.704,-8.5 3.836,-16.949 6.692,-25.137 2.836,-8.14 6.785,-15.851 10.32,-23.714 3.317,-7.375 7.473,-14.395 10.215,-22 3.754,-10.434 7.535,-21.125 8.441,-32.176 1.047,-12.75 -1.886,-31.071 -3.562,-38.215 -1.676,-7.145 0,0 -316.09,-631.371 l -101.25,302.25 -70.223,-136.5 117.957,-334.281 54.266,-0.293 c 0,0 402.73,775.394 412.5,792.824 9.77,17.426 27.082,53.683 38.906,81.301 6.309,14.722 12.746,29.496 17.059,44.921 3.32,11.883 5.668,24.106 6.707,36.399 1.266,14.949 1.625,30.164 -0.598,45 -1.094,7.273 -3.386,14.379 -6.191,21.176 -1.793,4.336 -4.383,8.3 -6.731,12.363 -2.132,3.684 -4.207,7.418 -6.675,10.887 -2.379,3.34 -4.879,6.632 -7.809,9.504 -4.883,4.785 -10.199,9.25 -16.102,12.699 -8.234,4.812 -17.25,8.402 -26.457,10.871 -8.949,2.402 -18.285,3.32 -27.539,3.723 z"
         style="fill:#ffc701;fill-opacity:1;fill-rule:nonzero;stroke:none"
         id="path16"
         inkscape:connector-curvature="0" /><path
         d="m 635.113,1647.963 281.645,-858.554 20.555,42.121 -263.95,802.183 -38.25,14.25 z"
         style="fill:#000000;fill-opacity:1;fill-rule:nonzero;stroke:none"
         id="path18"
         inkscape:connector-curvature="0" /><path
         d="m 1734.613,1635.963 c 1.094,-0.812 1.688,-1.078 3,-1.5 -1.156,0.95 -1.539,1.118 -3,1.5"
         style="fill:#ffc701;fill-opacity:1;fill-rule:nonzero;stroke:none"
         id="path20"
         inkscape:connector-curvature="0" /><path
         d="m 1246.68,1044.096 -27.145,-56.133 71.75,-211.461 25.074,53.844 -69.679,213.75 z"
         style="fill:#010101;fill-opacity:1;fill-rule:nonzero;stroke:none"
         id="path22"
         inkscape:connector-curvature="0" /><path
         d="m 793.363,1512.963 54,-20.984 c 10.774,1.766 13.989,2.699 21.067,2.664 10.32,-0.047 23.215,-3.266 30.683,-4.18 -0.636,4.079 -6.347,10.496 -10.726,14.692 -4.285,4.105 -9.41,7.418 -14.817,9.871 -6.398,2.902 -13.406,4.422 -20.351,5.504 -7.137,1.113 -14.434,1.312 -21.649,0.969 -5.605,-0.266 -11.179,-1.172 -16.668,-2.34 -7.308,-1.555 -17,-5.262 -21.539,-6.196 z"
         style="fill:#ffc701;fill-opacity:1;fill-rule:nonzero;stroke:none"
         id="path24"
         inkscape:connector-curvature="0" /><path
         d="m 777.664,1523.264 c 2.141,0.445 16.41,4.633 24.672,6.727 4.133,1.043 8.266,2.097 12.449,2.914 4.879,0.945 9.793,1.754 14.738,2.285 5.692,0.609 11.418,1.051 17.141,1.019 5.926,-0.031 12.024,0.325 17.738,-1.246 9.395,-2.586 18.442,-7.14 26.11,-13.152 4.992,-3.91 8.972,-9.098 12.367,-14.453 3.457,-5.445 5.129,-9.512 7.941,-17.645 l 196.473,-567.859 c 202.5,392.789 260.473,508.699 265.402,521.039 4.93,12.34 12.746,29.496 17.059,44.926 3.32,11.879 5.664,24.101 6.707,36.394 1.266,14.95 1.625,30.164 -0.602,45 -1.089,7.274 -3.386,14.379 -6.191,21.176 -1.789,4.34 -4.383,8.301 -6.73,12.363 -2.133,3.688 -4.208,7.422 -6.676,10.887 -2.379,3.34 -4.879,6.637 -7.809,9.504 -4.879,4.785 -10.199,9.25 -16.101,12.699 -8.231,4.813 -17.215,8.535 -26.457,10.871 -10.629,2.692 -21.782,4.375 -32.711,3.481 -8.457,-0.692 -16.723,-3.465 -24.539,-6.766 -7.133,-3.011 -13.922,-6.996 -20.032,-11.742 -6.711,-5.211 -12.566,-11.527 -17.929,-18.113 -5.067,-6.219 -9.606,-12.934 -13.329,-20.039 -3.929,-7.5 -6.82,-15.532 -9.378,-23.606 -2.043,-6.453 -3.707,-13.058 -4.735,-19.75 -1.027,-6.711 -1.629,-13.535 -1.402,-20.32 0.223,-6.606 1.383,-13.168 2.68,-19.649 1.707,-8.503 3.839,-16.953 6.691,-25.14 2.836,-8.141 6.785,-15.852 10.32,-23.711 3.317,-7.375 7.477,-14.395 10.215,-22.004 3.758,-10.434 7.535,-21.125 8.442,-32.176 1.046,-12.75 -1.161,-27.972 -3.559,-38.215 -0.949,-4.046 -99.766,-194.25 -99.766,-194.25 l -154.5,476.25 -204.859,-79.832 0.16,-47.867 z"
         style="fill:#000000;fill-opacity:1;fill-rule:nonzero;stroke:none"
         id="path26"
         inkscape:connector-curvature="0" /><path
         d="m 998.594,1651.088 140.535,-442.718 24.719,50.343 -122.985,375 -42.269,17.375 z"
         style="fill:#ffc701;fill-opacity:1;fill-rule:nonzero;stroke:none"
         id="path28"
         inkscape:connector-curvature="0" /><path
         d="m 1102.242,886.084 -174.328,-328.226 -54.547,-0.117 40.098,-17.414 44.59,0.254 156.687,308.043 -12.5,37.46 z"
         style="fill:#010101;fill-opacity:1;fill-rule:nonzero;stroke:none"
         id="path30"
         inkscape:connector-curvature="0" /><path
         d="m 618.867,1651.143 -204.855,-79.832 0.156,-47.863 c 2.141,0.441 16.41,4.629 24.676,6.722 4.129,1.047 8.265,2.102 12.449,2.914 4.879,0.946 9.793,1.754 14.734,2.286 5.692,0.609 11.418,1.05 17.141,1.019 5.93,-0.031 12.023,0.324 17.738,-1.246 9.399,-2.586 18.442,-7.141 26.114,-13.152 4.988,-3.91 8.968,-9.098 12.363,-14.453 3.457,-5.446 5.101,-9.524 7.945,-17.645 l 315.32,-920.574 55.559,-0.086 c 136.113,267.68 32.879,61.195 173.981,333.23 l -39.325,117 -139.5,-275.25 -294.496,906.93 z m 759.317,-18.785 c 4.492,-4.688 8.468,-10.629 12.382,-16.18 3.489,-4.949 6.977,-9.933 9.883,-15.246 3.215,-5.867 6.145,-11.941 8.313,-18.269 2.086,-6.082 3.484,-12.407 4.468,-18.758 1.161,-7.5 1.782,-15.117 1.665,-22.703 -0.18,-11.739 -1.504,-23.489 -3.649,-35.032 -2.785,-15.003 -6.851,-29.812 -11.922,-44.207 -4.261,-12.105 -10.117,-23.57 -15.48,-35.25 l -186.75,-370.5 13.554,-43.754 198.465,390.254 c 6,15 15.469,35.317 22.535,53.25 3.418,8.668 6.895,17.336 9.594,26.25 2.031,6.707 3.844,13.508 4.949,20.426 1.18,7.371 1.692,14.86 1.786,22.324 0.082,6.356 -0.176,12.739 -1.036,19.036 -1.05,7.707 -2.687,15.367 -5.015,22.789 -2.16,6.867 -4.797,13.644 -8.254,19.961 -3.024,5.527 -6.504,10.902 -10.809,15.5 -6.859,7.324 -15.679,14.57 -23.508,18.808 m 344.258,10.406 0.75,-0.75 -0.75,0.75 z"
         style="fill:#ff2101;fill-opacity:1;fill-rule:nonzero;stroke:none"
         id="path32"
         inkscape:connector-curvature="0" /><path
         d="m 429.574,1513.983 54,-20.988 c 10.774,1.769 13.989,2.703 21.067,2.668 10.32,-0.047 23.214,-3.266 30.683,-4.18 -0.636,4.078 -6.347,10.496 -10.726,14.691 -4.285,4.106 -9.414,7.418 -14.817,9.868 -6.402,2.906 -13.406,4.425 -20.351,5.507 -7.137,1.11 -14.434,1.313 -21.649,0.969 -5.605,-0.266 -11.183,-1.172 -16.668,-2.34 -7.308,-1.554 -17,-5.261 -21.539,-6.195 z"
         style="fill:#000000;fill-opacity:1;fill-rule:nonzero;stroke:none"
         id="path34"
         inkscape:connector-curvature="0" /><path
         d="m 1744.363,1630.713 c 4.492,-4.687 8.465,-10.629 12.379,-16.179 3.492,-4.95 6.977,-9.934 9.887,-15.242 3.215,-5.872 6.141,-11.942 8.312,-18.274 2.086,-6.078 3.485,-12.406 4.465,-18.758 1.16,-7.496 1.782,-15.113 1.668,-22.699 -0.179,-11.738 -1.508,-23.488 -3.652,-35.031 -2.785,-15.008 -6.852,-29.813 -11.922,-44.211 -4.262,-12.102 -12.797,-29.41 -15.477,-35.25 -146.628,-291.66 -297.453,-579.832 -450.324,-868.211 l -55.179,-0.121 39.207,-17.41 45.484,0.254 c 142.348,289.464 303.633,571.289 446.078,861.488 3,7.5 15.473,35.32 22.539,53.25 3.414,8.668 6.891,17.336 9.59,26.25 2.031,6.707 3.844,13.512 4.953,20.43 1.18,7.371 1.688,14.859 1.785,22.32 0.078,6.355 -0.179,12.742 -1.035,19.039 -1.055,7.707 -2.687,15.367 -5.019,22.785 -2.157,6.871 -4.797,13.649 -8.254,19.965 -3.02,5.523 -6.504,10.898 -10.805,15.496 -6.859,7.328 -15.129,13.289 -23.512,18.813 -6.679,4.398 -21.168,11.296 -21.168,11.296 z"
         style="fill:#010101;fill-opacity:1;fill-rule:nonzero;stroke:none"
         id="path36"
         inkscape:connector-curvature="0" /></g></g></svg>